<svg xmlns="http://www.w3.org/2000/svg">
  <symbol id="radioactive" viewBox="0 0 39.81 39.81">
    <title>Radioactive icon</title>
    <circle fill="currentColor" cx="19.84" cy="18.96" r="2.7"/>
    <path fill="currentColor" d="M17.77,15.31l0-.06-5-8.59a13.81,13.81,0,0,0-7,12.3h9.86A4.2,4.2,0,0,1,17.77,15.31Z"/>
    <path fill="currentColor" d="M19.84,23.18a4.17,4.17,0,0,1-2.13-.6h-.06l-4.93,8.66a13.81,13.81,0,0,0,14.14-.08L21.94,22.6A4.17,4.17,0,0,1,19.84,23.18Z"/>
    <path fill="currentColor" d="M26.85,6.76l-4.92,8.56A4.2,4.2,0,0,1,24.06,19s0,0,0,0l0,0,10-.1A13.81,13.81,0,0,0,26.85,6.76Z"/>
    <path fill="currentColor" d="M19.91,39.81A19.91,19.91,0,1,1,39.81,19.91,19.93,19.93,0,0,1,19.91,39.81Zm0-38.1A18.19,18.19,0,1,0,38.09,19.91,18.21,18.21,0,0,0,19.91,1.72Z"/>
  </symbol>

  <symbol id="flammable" viewBox="0 0 39.81 39.81">
    <title>Flammable icon</title>
    <path fill="currentColor" d="M19.91,39.81A19.91,19.91,0,1,1,39.81,19.91,19.93,19.93,0,0,1,19.91,39.81Zm0-38.1A18.19,18.19,0,1,0,38.1,19.91,18.21,18.21,0,0,0,19.91,1.72Z"/>
    <path fill="currentColor" d="M21.75,24.22a9.11,9.11,0,0,0,.36-1,4.72,4.72,0,0,0-.21-2.63,10.68,10.68,0,0,0-1.51-2.86l.06.65a15.08,15.08,0,0,1-.09,4.12,5.54,5.54,0,0,1-1,2.26,7.71,7.71,0,0,1-1.64-3.32,7.09,7.09,0,0,0-.48,2.94,10.59,10.59,0,0,0,.57,2.91,1.32,1.32,0,0,1-.72-.48,4.64,4.64,0,0,1-.69-1.47,29.53,29.53,0,0,1-.84-3.67l0-.15-.12.27A6.74,6.74,0,0,0,15,24a4.23,4.23,0,0,1-.08.69.42.42,0,0,1-.53.38,9,9,0,0,1-.92-.24,13,13,0,0,0,.63,2.46A7.43,7.43,0,0,0,15.81,30a4.87,4.87,0,0,0,1.78,1.14l.17.07a5.18,5.18,0,0,1-1.67.21,4.78,4.78,0,0,1-4-2.56,9.15,9.15,0,0,1-1.19-3.65,8.75,8.75,0,0,1,.14-2.74A4.76,4.76,0,0,0,10.9,20a.32.32,0,0,1,0-.08,3.75,3.75,0,0,1,1.43,1.37,25.1,25.1,0,0,0,.49-6.81,5,5,0,0,1,.52.33,4.24,4.24,0,0,1,1,1.36c.17.33.33.66.51,1A21,21,0,0,0,15.64,14a10.3,10.3,0,0,0,.16-2.86c-.07-.56-.2-1.12-.3-1.69a1,1,0,0,1,.64.3,7.18,7.18,0,0,1,.78,1c.25.38.45.8.69,1.24.09-.18.17-.33.24-.49a5.26,5.26,0,0,0,.27-1.75c0-.69,0-1.37,0-2.06a4.93,4.93,0,0,1,.35-1.75,5.48,5.48,0,0,1,.36-.63l.05,0c.07.35.13.7.21,1a7,7,0,0,0,1.19,2.57,12.52,12.52,0,0,1,1.61,2.68c.2.52.36,1.05.54,1.58,0,.07,0,.15.08.27a3.88,3.88,0,0,0,.38-1.49c0-.5,0-1,0-1.56.16.13.31.24.43.36a5.75,5.75,0,0,1,1.18,1.86,19.83,19.83,0,0,1,1.24,4.34c.06.35.12.69.19,1.09.1-.08.2-.14.25-.23a6.34,6.34,0,0,0,.47-1c.15-.47.23-1,.35-1.48.13.2.25.39.36.58a7.45,7.45,0,0,1,.94,4.4,11.69,11.69,0,0,1-.22,1.5c-.09.4-.26.78-.37,1.18a3.52,3.52,0,0,0-.09,1.4,1.65,1.65,0,0,0,.61-.79c.14-.3.26-.61.4-.93A6.8,6.8,0,0,1,19.85,31c.33-.2.65-.38,1-.57.64-.41,1.3-.78,1.9-1.24a5.7,5.7,0,0,0,2-3.28c.11-.44.18-.88.27-1.33l-1.18.66,0,0c.08-.33.18-.66.25-1a4.38,4.38,0,0,0,.06-2.09,5.63,5.63,0,0,0-.25-.61c-.13.3-.24.54-.35.78a4.76,4.76,0,0,1-1.07,1.53,4.4,4.4,0,0,1-.65.41Z"/>
    <path fill="currentColor" d="M25.28,31.9v.51h-12V31.9Z"/>
  </symbol>

  <symbol id="biohazard" viewBox="0 0 39.81 39.81">
    <title>Biohazard icon</title>
    <path fill="currentColor" d="M19.91,39.81A19.91,19.91,0,1,1,39.81,19.91,19.93,19.93,0,0,1,19.91,39.81Zm0-38.1A18.19,18.19,0,1,0,38.1,19.91,18.21,18.21,0,0,0,19.91,1.72Z"/>
    <path fill="currentColor" d="M13.45,16.16a7.37,7.37,0,0,1,.28-7.8,7.16,7.16,0,0,1,4.85-3.2A5.79,5.79,0,0,0,15.3,7.35a5.6,5.6,0,0,0-1.12,3.77,5.76,5.76,0,0,0,5.26,5.38c0,.11,0,.23,0,.34s0,.48,0,.73c0,.08,0,.1-.1.12A2.25,2.25,0,0,0,17.65,20a3.45,3.45,0,0,0,.08.51c0,.05,0,.09,0,.12l-.95.54a5.71,5.71,0,0,0-4-2.42,5.59,5.59,0,0,0-3.6.72,5.76,5.76,0,0,0-2.64,6.66A7.4,7.4,0,0,1,13.45,16.16Z"/>
    <path fill="currentColor" d="M26.36,16.15a7.35,7.35,0,0,1,6.5,3.92,7.2,7.2,0,0,1,.45,6,5.76,5.76,0,0,0-.28-4,5.64,5.64,0,0,0-2.86-2.87,5.76,5.76,0,0,0-7.1,2l-1-.56s0-.08,0-.12a2.27,2.27,0,0,0-1.6-2.78l-.1,0V16.5a5.72,5.72,0,0,0,4.08-2.25,5.59,5.59,0,0,0,1.18-3.36,5.77,5.77,0,0,0-4.42-5.73A7.16,7.16,0,0,1,24,6.25a7.42,7.42,0,0,1,2.38,9.89Z"/>
    <path fill="currentColor" d="M19.92,27.34A7.38,7.38,0,0,1,13.24,31,7.2,7.2,0,0,1,7.9,28.45a5.73,5.73,0,0,0,3.73,1.72A5.63,5.63,0,0,0,15.56,29a5.76,5.76,0,0,0,1.67-7l.08-.05.85-.49s.08-.05.13,0a2.25,2.25,0,0,0,3.27,0l0,0,1,.58a5.7,5.7,0,0,0-.21,4.37,5.63,5.63,0,0,0,2.21,2.85,5.77,5.77,0,0,0,7.33-.76A7.26,7.26,0,0,1,25.64,31,7.35,7.35,0,0,1,19.92,27.34Z"/>
    <path fill="currentColor" d="M23.84,13.7a7.92,7.92,0,0,1-.55.59c-.26.23-.54.43-.82.63a.16.16,0,0,1-.14,0,5.5,5.5,0,0,0-4.83,0,.17.17,0,0,1-.14,0A4.79,4.79,0,0,1,16,13.75l0-.07a7.33,7.33,0,0,1,7.84,0Z"/>
    <path fill="currentColor" d="M16.5,26.36a7.32,7.32,0,0,1-3-3,7.19,7.19,0,0,1-.87-3.78,4.82,4.82,0,0,1,1.76.57.14.14,0,0,1,.06.1A5.42,5.42,0,0,0,16,23.74c.25.26.55.46.83.7a.21.21,0,0,1,.08.13,4.91,4.91,0,0,1-.36,1.71Z"/>
    <path fill="currentColor" d="M23.31,26.35A4.53,4.53,0,0,1,23,25.22c0-.2,0-.4-.06-.61a.18.18,0,0,1,.09-.19,5.43,5.43,0,0,0,2.26-3.32c.07-.28.09-.57.13-.85a.15.15,0,0,1,.05-.1,4.8,4.8,0,0,1,1.77-.57,7.28,7.28,0,0,1-3.92,6.77Z"/>
  </symbol>
</svg>