<svg xmlns="http://www.w3.org/2000/svg">

  <symbol id="plus" width="80" height="80" viewBox="0 0 80 80">
    <title>Plus</title>
    <path d="M28.768 50.916H.126V28.923h28.642V.6h22.467v28.323h28.64v21.993h-28.64V79.4H28.768z" fill-rule="nonzero" fill="#42210B"/>
  </symbol>

  <symbol id="minus" width="81" height="28" viewBox="0 0 81 28">
    <title>Minus</title>
    <path d="M.585.549h80v26.536h-80z" fill-rule="nonzero" fill="#42210B"/>
  </symbol>

  <!-- Can only be used as normal SVG if you want to manipulate it -->
  <svg id="indicator" width="81" height="81" viewBox="0 0 81 81">
    <title>Plus/Minus icon</title>
    <g fill-rule="nonzero" fill="none">
      <path fill="currentColor" d="M.585 27.549h80v26.536h-80z"/>
      <path fill="currentColor" d="M53.853.817v80H27.317v-80z"/>
    </g>
  </svg>

  <symbol id="cheese" width="141" height="65" viewBox="0 0 141 65">
    <title>Cheese</title>
    <g transform="translate(1 1)" fill-rule="nonzero" fill="none">
      <path stroke="#A67C52" stroke-width="1.335" fill="#F3CA5F" d="M6.342 22.046l129.104 8.016L61.314.513zM6.335 57.689C-6.124 46.123 3.763 23.081 3.763 23.081l134.906 8.269.193 31.662-129.8-4.93-2.727-.393z"/>
      <circle stroke="#F3CA5F" stroke-width="1.335" fill="#A67C52" cx="42.436" cy="39.168" r="6.229"/>
      <circle fill="#A67C52" cx="67.525" cy="49.573" r="7.786"/>
      <circle stroke="#F3CA5F" stroke-width="1.001" fill="#A67C52" cx="86.322" cy="38.362" r="4.672"/>
      <circle stroke="#F3CA5F" stroke-width=".818" fill="#A67C52" cx="123.072" cy="40.127" r="3.816"/>
      <circle stroke="#F3CA5F" stroke-width="1.001" fill="#A67C52" cx="12.222" cy="31.821" r="4.673"/>
      <path d="M17.682 57.292s7.389-13.202 18.15 1.805l-18.644-.707.494-1.098zM38.919 9.285s21.367 4.733 12.575-4.925L38.919 9.285zM85.407 10.116s-5.88 7.642 10.607 4.228l-10.607-4.228z" fill="#A67C52"/>
      <ellipse fill="#A67C52" transform="rotate(-4.25 47.39 15.949)" cx="47.39" cy="15.949" rx="5.256" ry="2.002"/>
      <ellipse fill="#A67C52" transform="rotate(-4.249 67.93 22.424)" cx="67.93" cy="22.424" rx="5.255" ry="2.002"/>
      <ellipse fill="#A67C52" transform="rotate(-4.255 67.635 9.658)" cx="67.635" cy="9.658" rx="3.235" ry="1.233"/>
      <ellipse fill="#A67C52" transform="rotate(-4.25 96.59 20.89)" cx="96.591" cy="20.89" rx="3.234" ry="1.233"/>
      <path d="M102.848 61.644s12.416-20.153 26.736 1.016l-26.736-1.016z" fill="#A67C52"/>
    </g>
  </symbol>

  <symbol id="lettuce" width="110" height="73" viewBox="0 0 110 73" >
    <title>Lettuce</title>
    <path d="M105.904 53.255c-.839-.26-1.688-.486-2.513-.783-4.116-1.478-8.223-2.986-12.343-4.458-.482-.173-1.022-.241-1.537-.265-2.41-.112-4.748.315-7.024 1.061-7.75 2.533-14.185 7.136-20.008 12.718-2.525 2.419-5.077 4.826-7.784 7.036-2.812 2.295-6.101 3.673-9.762 4.03-2.941.287-5.721-.207-8.133-1.985-1.124-.829-2.157-1.807-3.11-2.829-2.148-2.306-4.704-3.502-7.887-3.23-.308.025-.62.029-.929.021-1.189-.033-2.385-.019-3.567-.127-2.091-.192-3.859-1.09-5.106-2.794a31.523 31.523 0 0 1-2.296-3.684c-1.256-2.347-2.56-4.666-4.836-6.168-1.362-.897-2.859-1.592-4.316-2.34-1.166-.599-2.207-1.333-2.869-2.488-1.679-2.924-1.493-5.873-.017-8.801 1.259-2.497 3.17-4.463 5.318-6.181 3.375-2.698 6.34-5.724 8.623-9.433 2.405-3.906 6-5.471 10.537-4.879 1.038.136 2.07.328 3.109.454 2.22.269 4.438.678 6.663.732 4.471.11 8.63-1.184 12.614-3.161 2.723-1.35 5.453-2.711 8.439-3.438 3.527-.856 6.944-.756 10.156 1.14a15.908 15.908 0 0 1 5.628 5.582c1.655 2.77 3.114 5.661 4.588 8.534 1.733 3.377 3.492 6.709 6.442 9.246 1.72 1.476 3.538 2.566 5.812 3.13 5.076 1.263 10.083 2.811 15.115 4.252.37.107.721.284 1.181.468l-1.04.864c-2.216 1.862-2.337 4.213-.329 6.297.426.441.829.9 1.245 1.352-.02.043-.041.084-.064.127zm-28.641-8.647c-.947-.151-2.044.349-3.022.693-7.04 2.478-12.971 6.528-17.522 12.504-.099.127-.216.241-.407.455.638-1.367 2.868-4.149 4.956-5.927 1.971-1.681 3.971-3.359 6.131-4.773 2.131-1.396 4.481-2.458 6.687-3.638-.748-.134-1.625-.305-2.507-.443-2.564-.399-5.13-.807-7.702-1.154-.449-.062-.992.052-1.4.262-4.044 2.092-7.673 4.774-11.001 7.867-2.188 2.033-4.08 4.325-5.803 6.763-.094.13-.197.251-.336.34 3.911-6.418 9.223-11.448 15.682-15.567-.424-.073-.647-.124-.875-.149-2.131-.222-4.265-.463-6.399-.642a2.525 2.525 0 0 0-1.341.271c-5.776 3.186-10.77 7.326-14.992 12.395-.199.236-.376.492-.565.736-.187.241-.375.482-.625.663 3.887-5.754 8.789-10.474 14.807-14.31-.732-.057-1.272-.104-1.814-.138-2.83-.167-5.661-.339-8.491-.488-.263-.012-.585.038-.791.184-2.905 2.034-5.874 3.987-8.661 6.172-2.374 1.859-4.534 3.989-6.788 6.002-.211.188-.418.383-.707.503 1.071-1.166 2.109-2.363 3.225-3.483a70.423 70.423 0 0 1 3.554-3.314c1.2-1.049 2.457-2.037 3.701-3.035 1.262-1.012 2.54-2.002 3.932-3.101-.348-.029-.57-.061-.788-.066-3.763-.086-7.527-.174-11.29-.24-.34-.005-.702.097-1.022.228-2.909 1.178-5.332 3.01-7.292 5.457a.727.727 0 0 1-.287.208c1.493-2.291 3.229-4.352 5.618-5.865l-4.63-.544.005-.234c4.171-2.581 8.939-3.118 13.79-3.9-4.361-2.47-7.927-5.626-10.594-9.758l.415.453c.158.178.314.358.469.54a30.466 30.466 0 0 0 10.884 8.141c.597.266 1.329.327 1.994.311 1.324-.03 2.645-.178 4.11-.288-3.295-2.614-6.391-5.234-8.727-8.623.777.758 1.492 1.594 2.34 2.263 2.614 2.059 5.275 4.056 7.928 6.064.178.133.438.222.657.22 1.81-.012 3.621-.049 5.43-.083.065 0 .129-.039.251-.082-1.951-2.77-3.29-5.809-4.328-8.992.736 1.378 1.391 2.808 2.226 4.122 1.008 1.579 2.158 3.067 3.279 4.569.158.213.5.383.767.397 2.262.112 4.523.182 6.785.265.087.002.176-.017.351-.033-1.336-1.87-2.747-3.627-3.244-5.877.531.81 1.002 1.67 1.606 2.42.938 1.169 1.962 2.271 2.969 3.382.126.138.36.228.554.248 3.271.326 6.543.638 9.815.953.067.007.135-.015.306-.035-3.453-3.934-6.1-8.259-7.449-13.299.464 1.083.914 2.172 1.395 3.247 1.785 3.993 4.596 7.198 7.785 10.106.197.18.492.301.759.348 4.291.753 8.586 1.491 12.88 2.232.067.01.137-.001.312-.001-.606-.524-1.158-.978-1.688-1.455-2.655-2.398-4.3-5.479-5.871-8.62-1.373-2.741-2.726-5.498-4.23-8.165a16.59 16.59 0 0 0-4.608-5.21c-2.329-1.725-4.927-2.412-7.801-2.101-3.005.324-5.755 1.435-8.463 2.691-1.466.681-2.926 1.378-4.404 2.032-5.423 2.406-11.057 2.849-16.852 1.794-1.242-.228-2.494-.395-3.742-.58-4.234-.63-7.599.721-9.916 4.4-2.179 3.464-4.978 6.351-8.113 8.958-1.753 1.458-3.443 3.011-4.741 4.925-1.266 1.863-2.074 3.855-1.84 6.159.222 2.166 1.2 3.826 3.201 4.818 1.36.675 2.77 1.284 4.047 2.096 2.211 1.411 3.805 3.4 5.039 5.721a48.87 48.87 0 0 0 2.886 4.746c1.076 1.561 2.688 2.316 4.564 2.458.924.068 1.854.056 2.782.064.644.003 1.286-.011 1.93-.03 3.048-.099 5.546 1.064 7.646 3.235.926.957 1.91 1.866 2.938 2.711 2.349 1.933 5.103 2.446 8.058 2.125 3.161-.344 5.924-1.671 8.483-3.492 3.14-2.235 5.801-5.001 8.565-7.658 3.479-3.341 7.153-6.441 11.417-8.755 3.837-2.083 7.784-3.902 12.14-4.648.061-.012.118-.052.177-.079.009-.063.013-.125.021-.186-2.862-.636-5.697-1.388-8.58-1.856zm26.394.533c-.277-.104-.499-.207-.729-.274-3.196-.939-6.368-1.976-9.596-2.788-7.404-1.864-14.855-3.5-22.438-4.498-7.592-.996-15.205-1.64-22.86-1.7-6.702-.055-13.386.225-19.996 1.426-1.7.308-3.372.757-5.058 1.142.005.076.013.152.019.227.307.014.612.037.921.039 9.887.088 19.768.334 29.625 1.213 12.576 1.121 25.011 3.047 37.132 6.668 3.732 1.113 7.375 2.537 11.058 3.82.246.086.484.186.856.334-.951-2.16-.424-3.928 1.066-5.609z" fill="#006837"/>
    <path d="M85.837 46.468c-2.855-.64-5.691-1.392-8.574-1.859-.947-.151-2.044.349-3.022.693-7.04 2.478-12.971 6.528-17.522 12.504-.099.127-.216.241-.407.455.638-1.367 2.868-4.149 4.956-5.927 1.971-1.681 3.971-3.359 6.131-4.773 2.131-1.396 4.481-2.458 6.687-3.638-.748-.134-1.625-.305-2.507-.443-2.564-.399-5.13-.807-7.702-1.154-.449-.062-.992.052-1.4.262-4.044 2.092-7.673 4.774-11.001 7.867-2.188 2.033-4.08 4.325-5.803 6.763-.094.13-.197.251-.336.34 3.911-6.418 9.223-11.448 15.682-15.567-.424-.073-.647-.124-.875-.149-2.131-.222-4.265-.463-6.399-.642a2.525 2.525 0 0 0-1.341.271c-5.776 3.186-10.77 7.326-14.992 12.395-.199.236-.376.492-.565.736-.187.241-.375.482-.625.663 3.887-5.754 8.789-10.474 14.807-14.31-.732-.057-1.272-.104-1.814-.138-2.83-.167-5.661-.339-8.491-.488-.263-.012-.585.038-.791.184-2.905 2.034-5.874 3.987-8.661 6.172-2.374 1.859-4.534 3.989-6.788 6.002-.211.188-.418.383-.707.503 1.071-1.166 2.109-2.363 3.225-3.483a70.423 70.423 0 0 1 3.554-3.314c1.2-1.049 2.457-2.037 3.701-3.035 1.262-1.012 2.54-2.002 3.932-3.101-.348-.029-.57-.061-.788-.066-3.763-.086-7.527-.174-11.29-.24-.34-.005-.702.097-1.022.228-2.909 1.178-5.332 3.01-7.292 5.457a.727.727 0 0 1-.287.208c1.493-2.291 3.229-4.352 5.618-5.865l-4.63-.544.005-.234c4.171-2.581 8.939-3.118 13.79-3.9-4.361-2.47-7.927-5.626-10.594-9.758l.415.453c.158.178.314.358.469.54a30.466 30.466 0 0 0 10.884 8.141c.597.266 1.329.327 1.994.311 1.324-.03 2.645-.178 4.11-.288-3.295-2.614-6.391-5.234-8.727-8.623.777.758 1.492 1.594 2.34 2.263 2.614 2.059 5.275 4.056 7.928 6.064.178.133.438.222.657.22 1.81-.012 3.621-.049 5.43-.083.065 0 .129-.039.251-.082-1.951-2.77-3.29-5.809-4.328-8.992.736 1.378 1.391 2.808 2.226 4.122 1.008 1.579 2.158 3.067 3.279 4.569.158.213.5.383.767.397 2.262.112 4.523.182 6.785.265.087.002.176-.017.351-.033-1.336-1.87-2.747-3.627-3.244-5.877.531.81 1.002 1.67 1.606 2.42.938 1.169 1.962 2.271 2.969 3.382.126.138.36.228.554.248 3.271.326 6.543.638 9.815.953.067.007.135-.015.306-.035-3.453-3.934-6.1-8.259-7.449-13.299.464 1.083.914 2.172 1.395 3.247 1.785 3.993 4.596 7.198 7.785 10.106.197.18.492.301.759.348 4.291.753 8.586 1.491 12.88 2.232.067.01.137-.001.312-.001-.606-.524-1.158-.978-1.688-1.455-2.655-2.398-4.3-5.479-5.871-8.62-1.373-2.741-2.726-5.498-4.23-8.165a16.59 16.59 0 0 0-4.608-5.21c-2.329-1.725-4.927-2.412-7.801-2.101-3.005.324-5.755 1.435-8.463 2.691-1.466.681-2.926 1.378-4.404 2.032-5.423 2.406-11.057 2.849-16.852 1.794-1.242-.228-2.494-.395-3.742-.58-4.234-.63-7.599.721-9.916 4.4-2.179 3.464-4.978 6.351-8.113 8.958-1.753 1.458-3.443 3.011-4.741 4.925-1.266 1.863-2.074 3.855-1.84 6.159.222 2.166 1.2 3.826 3.201 4.818 1.36.675 2.77 1.284 4.047 2.096 2.211 1.411 3.805 3.4 5.039 5.721a48.87 48.87 0 0 0 2.886 4.746c1.076 1.561 2.688 2.316 4.564 2.458.924.068 1.854.056 2.782.064.644.003 1.286-.011 1.93-.03 3.048-.099 5.546 1.064 7.646 3.235.926.957 1.91 1.866 2.938 2.711 2.349 1.933 5.103 2.446 8.058 2.125 3.161-.344 5.924-1.671 8.483-3.492 3.14-2.235 5.801-5.001 8.565-7.658 3.479-3.341 7.153-6.441 11.417-8.755 3.837-2.083 7.784-3.902 12.14-4.648.061-.012.118-.052.177-.079.002-.061.006-.122.015-.183z" fill="#88D28B"/>
    <path d="M102.591 50.75c-.951-2.16-.424-3.928 1.066-5.609-.277-.104-.499-.207-.729-.274-3.196-.939-6.368-1.976-9.596-2.788-7.404-1.864-14.855-3.5-22.438-4.498-7.592-.996-15.205-1.64-22.86-1.7-6.702-.055-13.386.225-19.996 1.426-1.7.308-3.372.757-5.058 1.142.005.076.013.152.019.227.307.014.612.037.921.039 9.887.088 19.768.334 29.625 1.213 12.576 1.121 25.011 3.047 37.132 6.668 3.732 1.113 7.375 2.537 11.058 3.82.245.086.484.186.856.334z" fill="#349400"/>
    <path d="M107.784 55.029c-.753-.449-1.525-.868-2.259-1.351-3.652-2.405-7.29-4.836-10.947-7.234-.429-.282-.937-.475-1.434-.62-2.315-.674-4.689-.809-7.076-.619-8.128.641-15.465 3.601-22.437 7.658-3.023 1.757-6.069 3.498-9.22 5.007-3.273 1.571-6.795 2.139-10.436 1.625-2.927-.413-5.512-1.547-7.44-3.842-.895-1.07-1.67-2.263-2.356-3.48-1.546-2.747-3.749-4.51-6.906-4.995a8.243 8.243 0 0 1-.908-.196c-1.148-.312-2.313-.579-3.438-.962-1.985-.679-3.495-1.968-4.307-3.917a31.502 31.502 0 0 1-1.364-4.12c-.669-2.578-1.392-5.136-3.252-7.132-1.112-1.192-2.405-2.221-3.646-3.289-.991-.856-1.832-1.816-2.204-3.093-.942-3.235-.07-6.059 2.055-8.558 1.81-2.13 4.129-3.594 6.62-4.757 3.915-1.829 7.511-4.074 10.6-7.141 3.257-3.23 7.117-3.907 11.39-2.266.977.378 1.935.806 2.915 1.173 2.095.783 4.153 1.701 6.305 2.279 4.318 1.156 8.664.877 13.004-.109 2.963-.671 5.937-1.352 9.01-1.355 3.63-.004 6.927.896 9.604 3.495a15.91 15.91 0 0 1 4.158 6.748c.957 3.08 1.696 6.234 2.453 9.374.891 3.689 1.817 7.343 4.089 10.501 1.323 1.838 2.835 3.325 4.911 4.407 4.638 2.423 9.14 5.103 13.693 7.688.335.19.634.446 1.038.732-.491.242-.854.417-1.213.594-2.594 1.289-3.265 3.546-1.802 6.043.31.528.595 1.07.892 1.607-.029.034-.06.07-.092.105zM81.979 39.893c-.885-.37-2.068-.142-3.101-.037-7.426.754-14.144 3.296-19.972 8.035-.125.101-.267.184-.503.347.941-1.18 3.764-3.359 6.211-4.597 2.311-1.17 4.649-2.332 7.081-3.197 2.4-.855 4.934-1.333 7.354-1.964-.695-.306-1.509-.678-2.332-1.019-2.399-.991-4.796-1.991-7.215-2.934-.424-.165-.979-.183-1.424-.074-4.422 1.082-8.58 2.836-12.542 5.06-2.604 1.462-4.983 3.246-7.229 5.209a1.263 1.263 0 0 1-.408.252c5.31-5.32 11.655-8.96 18.901-11.445-.395-.171-.6-.273-.814-.351-2.021-.717-4.036-1.453-6.069-2.128a2.503 2.503 0 0 0-1.367-.051c-6.364 1.738-12.189 4.588-17.485 8.522-.249.184-.482.39-.724.582-.238.19-.477.381-.762.497 5.13-4.678 11.005-8.113 17.755-10.428-.699-.226-1.213-.4-1.731-.559-2.71-.829-5.422-1.661-8.138-2.471-.254-.074-.578-.099-.813-.007-3.302 1.294-6.646 2.495-9.869 3.963-2.743 1.249-5.345 2.812-8.008 4.239-.249.133-.496.274-.807.322 1.315-.88 2.607-1.8 3.954-2.627a71.22 71.22 0 0 1 4.232-2.387c1.414-.737 2.867-1.402 4.312-2.079 1.464-.688 2.938-1.35 4.549-2.088-.331-.111-.538-.194-.75-.25-3.636-.968-7.275-1.939-10.916-2.887-.329-.086-.705-.071-1.049-.019-3.104.46-5.889 1.672-8.37 3.59a.725.725 0 0 1-.327.134c1.989-1.874 4.162-3.469 6.838-4.379l-4.37-1.617.058-.228c4.661-1.527 9.423-.928 14.322-.547-3.659-3.428-6.384-7.333-8.004-11.976.098.181.199.358.297.537.111.211.223.423.329.636a30.443 30.443 0 0 0 8.665 10.471c.517.398 1.214.63 1.865.771 1.294.283 2.612.449 4.062.686-2.587-3.315-4.979-6.59-6.452-10.433.576.921 1.073 1.902 1.742 2.751 2.055 2.616 4.173 5.183 6.279 7.758.141.17.372.318.586.368 1.762.413 3.531.804 5.297 1.196.063.015.135-.007.264-.021-1.246-3.151-1.833-6.42-2.093-9.758.391 1.514.69 3.056 1.194 4.53.608 1.772 1.376 3.49 2.113 5.212.104.244.396.491.652.566 2.171.64 4.353 1.241 6.532 1.853.084.022.173.024.349.051-.859-2.133-1.818-4.172-1.772-6.475.326.911.581 1.858.993 2.729.638 1.356 1.373 2.667 2.091 3.984.089.165.298.308.479.372 3.104 1.086 6.211 2.158 9.317 3.233.064.023.135.018.305.039-2.433-4.636-3.987-9.461-4.113-14.678.196 1.16.378 2.326.591 3.483.796 4.3 2.775 8.076 5.192 11.653.148.221.407.408.655.516 3.994 1.741 7.995 3.469 11.994 5.197.062.026.134.032.304.072-.467-.649-.896-1.222-1.299-1.81-2.017-2.954-2.892-6.336-3.68-9.758-.688-2.987-1.356-5.985-2.191-8.931a16.62 16.62 0 0 0-3.255-6.147c-1.858-2.225-4.224-3.501-7.088-3.875-2.997-.392-5.933.042-8.858.626-1.585.318-3.168.651-4.76.94-5.836 1.064-11.416.169-16.801-2.22-1.153-.512-2.33-.968-3.502-1.442-3.967-1.607-7.554-1.084-10.671 1.947-2.933 2.854-6.331 5.002-9.991 6.798-2.048 1.006-4.055 2.117-5.768 3.673-1.668 1.513-2.922 3.259-3.235 5.553-.294 2.158.266 4.001 1.979 5.436 1.165.976 2.391 1.899 3.44 2.99 1.818 1.891 2.899 4.199 3.554 6.745a48.285 48.285 0 0 0 1.69 5.291c.679 1.77 2.067 2.883 3.856 3.461.882.285 1.79.492 2.69.717.625.155 1.252.292 1.882.426 2.985.621 5.14 2.339 6.671 4.942a35.392 35.392 0 0 0 2.22 3.324c1.829 2.432 4.384 3.579 7.331 3.96 3.154.409 6.151-.231 9.067-1.4 3.578-1.435 6.815-3.497 10.127-5.43 4.167-2.43 8.467-4.578 13.155-5.826 4.219-1.121 8.483-1.963 12.891-1.665.063.003.128-.022.192-.035l.063-.175c-2.623-1.291-5.204-2.689-7.894-3.82zm25.529 6.722c-.244-.167-.436-.32-.645-.439-2.887-1.665-5.725-3.417-8.672-4.966-6.758-3.551-13.615-6.894-20.752-9.644-7.145-2.753-14.393-5.168-21.819-7.027-6.502-1.628-13.062-2.926-19.77-3.314-1.726-.1-3.458-.057-5.187-.079l-.034.225c.294.085.587.18.887.254 9.588 2.411 19.135 4.974 28.509 8.144 11.959 4.045 23.594 8.841 34.524 15.21 3.366 1.96 6.57 4.198 9.849 6.312.219.14.428.295.754.524-.416-2.322.512-3.917 2.356-5.2z" fill="#006837"/>
    <path d="M89.875 43.715c-2.625-1.293-5.206-2.691-7.896-3.823-.885-.37-2.068-.142-3.101-.037-7.426.754-14.144 3.296-19.972 8.035-.125.101-.267.184-.503.347.941-1.18 3.764-3.359 6.211-4.597 2.311-1.17 4.649-2.332 7.081-3.197 2.4-.855 4.934-1.333 7.354-1.964-.695-.306-1.509-.678-2.332-1.019-2.399-.991-4.796-1.991-7.215-2.934-.424-.165-.979-.183-1.424-.074-4.422 1.082-8.58 2.836-12.542 5.06-2.604 1.462-4.983 3.246-7.229 5.209a1.263 1.263 0 0 1-.408.252c5.31-5.32 11.655-8.96 18.901-11.445-.395-.171-.6-.273-.814-.351-2.021-.717-4.036-1.453-6.069-2.128a2.503 2.503 0 0 0-1.367-.051c-6.364 1.738-12.189 4.588-17.485 8.522-.249.184-.482.39-.724.582-.238.19-.477.381-.762.497 5.13-4.678 11.005-8.113 17.755-10.428-.699-.226-1.213-.4-1.731-.559-2.71-.829-5.422-1.661-8.138-2.471-.254-.074-.578-.099-.813-.007-3.302 1.294-6.646 2.495-9.869 3.963-2.743 1.249-5.345 2.812-8.008 4.239-.249.133-.496.274-.807.322 1.315-.88 2.607-1.8 3.954-2.627a71.22 71.22 0 0 1 4.232-2.387c1.414-.737 2.867-1.402 4.312-2.079 1.464-.688 2.938-1.35 4.549-2.088-.331-.111-.538-.194-.75-.25-3.636-.968-7.275-1.939-10.916-2.887-.329-.086-.705-.071-1.049-.019-3.104.46-5.889 1.672-8.37 3.59a.725.725 0 0 1-.327.134c1.989-1.874 4.162-3.469 6.838-4.379l-4.37-1.617.058-.228c4.661-1.527 9.423-.928 14.322-.547-3.659-3.428-6.384-7.333-8.004-11.976.098.181.199.358.297.537.111.211.223.423.329.636a30.443 30.443 0 0 0 8.665 10.471c.517.398 1.214.63 1.865.771 1.294.283 2.612.449 4.062.686-2.587-3.315-4.979-6.59-6.452-10.433.576.921 1.073 1.902 1.742 2.751 2.055 2.616 4.173 5.183 6.279 7.758.141.17.372.318.586.368 1.762.413 3.531.804 5.297 1.196.063.015.135-.007.264-.021-1.246-3.151-1.833-6.42-2.093-9.758.391 1.514.69 3.056 1.194 4.53.608 1.772 1.376 3.49 2.113 5.212.104.244.396.491.652.566 2.171.64 4.353 1.241 6.532 1.853.084.022.173.024.349.051-.859-2.133-1.818-4.172-1.772-6.475.326.911.581 1.858.993 2.729.638 1.356 1.373 2.667 2.091 3.984.089.165.298.308.479.372 3.104 1.086 6.211 2.158 9.317 3.233.064.023.135.018.305.039-2.433-4.636-3.987-9.461-4.113-14.678.196 1.16.378 2.326.591 3.483.796 4.3 2.775 8.076 5.192 11.653.148.221.407.408.655.516 3.994 1.741 7.995 3.469 11.994 5.197.062.026.134.032.304.072-.467-.649-.896-1.222-1.299-1.81-2.017-2.954-2.892-6.336-3.68-9.758-.688-2.987-1.356-5.985-2.191-8.931a16.62 16.62 0 0 0-3.255-6.147c-1.858-2.225-4.224-3.501-7.088-3.875-2.997-.392-5.933.042-8.858.626-1.585.318-3.168.651-4.76.94-5.836 1.064-11.416.169-16.801-2.22-1.153-.512-2.33-.968-3.502-1.442-3.967-1.607-7.554-1.084-10.671 1.947-2.933 2.854-6.331 5.002-9.991 6.798-2.048 1.006-4.055 2.117-5.768 3.673-1.668 1.513-2.922 3.259-3.235 5.553-.294 2.158.266 4.001 1.979 5.436 1.165.976 2.391 1.899 3.44 2.99 1.818 1.891 2.899 4.199 3.554 6.745a48.285 48.285 0 0 0 1.69 5.291c.679 1.77 2.067 2.883 3.856 3.461.882.285 1.79.492 2.69.717.625.155 1.252.292 1.882.426 2.985.621 5.14 2.339 6.671 4.942a35.392 35.392 0 0 0 2.22 3.324c1.829 2.432 4.384 3.579 7.331 3.96 3.154.409 6.151-.231 9.067-1.4 3.578-1.435 6.815-3.497 10.127-5.43 4.167-2.43 8.467-4.578 13.155-5.826 4.219-1.121 8.483-1.963 12.891-1.665.063.003.128-.022.192-.035.022-.054.044-.114.065-.172z" fill="#88D28B"/>
    <path d="M105.152 51.814c-.416-2.321.512-3.916 2.355-5.199-.244-.167-.436-.32-.645-.439-2.887-1.665-5.725-3.417-8.672-4.966-6.758-3.551-13.615-6.894-20.752-9.644-7.145-2.753-14.393-5.168-21.819-7.027-6.502-1.628-13.062-2.926-19.77-3.314-1.726-.1-3.458-.057-5.187-.079l-.034.225c.294.085.587.18.887.254 9.588 2.411 19.135 4.974 28.509 8.144 11.959 4.045 23.594 8.841 34.524 15.21 3.366 1.96 6.57 4.198 9.849 6.312.22.139.429.294.755.523z" fill="#349400"/>
  </symbol>

  <symbol id="tomatoes" width="127" height="62" viewBox="0 0 127 62">
    <title>Tomatoes</title>
    <path d="M41.055 8.279c.576.108 1.241.209 1.893.363 1.763.415 3.482.965 5.016 1.955.545.354 1.059.78 1.509 1.25.501.522.455.987-.02 1.533-1.309 1.503-3.068 2.173-4.926 2.65-2.224.573-4.497.709-6.781.71-.067.001-.136-.018-.109-.014l3.418-8.447zM29.169 8.046c1.123.81 2.371.63 3.63.574.198 2.035-.205 3.936-.684 5.984-1.56-1.989-2.509-4.117-2.946-6.558zM36.104 8.902l2.902-.771.126.187-3.113 4.594c-.053-.014-.106-.027-.157-.043l.242-3.967z" fill="#BC2A35"/>
    <path d="M27.917 5.084l.873-2.917c0 1.034.011 1.913-.006 2.792-.005.299.067.447.388.535.56.153 1.086.452 1.652.56.852.162 1.724.346 2.514-.299.731-.599 1.815-.489 2.48.228.234.254.422.311.751.197 1.155-.395 2.348-.536 3.563-.395.395.047.615-.047.801-.433.425-.886.911-1.744 1.381-2.61.091-.169.213-.323.394-.451-.308 1.175-.614 2.348-.933 3.56.765.168 1.508.317 2.247.496 2.034.498 3.961 1.259 5.706 2.437.916.619 1.717 1.352 2.246 2.354.102.191.317.341.512.46 3.061 1.918 5.772 4.23 7.966 7.113 4.433 5.823 5.55 12.254 3.462 19.245-2.643 8.862-8.323 15.131-16.506 19.238-4.639 2.327-9.573 3.55-14.747 3.703-6.109.179-11.668-1.665-16.749-4.954-6.536-4.229-11.299-9.914-13.807-17.356C1.078 35.534.574 32.395.933 29.153a19.808 19.808 0 0 1 2.984-8.496 229.796 229.796 0 0 1 4.76-7.218c1.656-2.418 3.597-4.597 6.225-5.979 3.456-1.819 7.124-2.897 11.09-2.645.327.022.654.07.979.115.321.045.641.102.946.154zm11.439 14.875c1.472 1.044 3.02 2.13 4.556 3.232 1.003.719 3.302 3.534 3.774 4.313-.636-.433-1.231-.849-1.838-1.241-2.603-1.687-5.378-2.932-8.479-3.35-1.449-.195-2.915-.336-3.992-1.635-2.022 3.235-4.718 5.712-7.8 7.795.084-.19.201-.349.319-.509 1.778-2.447 3.325-5.013 4.228-7.928.11-.354.03-.509-.237-.718-2.019-1.589-4.301-2.489-6.858-2.755-2.259-.236-4.514-.302-6.778-.093-.362.033-.724.077-1.086.12-.342.039-.683.082-1.023.123l-.019-.162c4.836-1.582 9.721-2.74 14.751-1.561-.301-1.235-.681-2.476-.89-3.743-.189-1.146-.243-2.32-.245-3.481-.001-.452-.086-.603-.503-.683a11.952 11.952 0 0 0-4.52-.024c-3.366.637-6.515 1.751-9.037 4.212-1.755 1.71-3.116 3.715-4.393 5.788-.628 1.023-1.245 2.059-1.944 3.035-1.34 1.868-2.44 3.849-3.104 6.057-1.18 3.929-.86 7.834.481 11.622 2.802 7.9 8.188 13.555 15.541 17.424.04.021.092.021.208.047-2.06-5.163-1.745-10.205.475-15.169.043.143.022.284-.005.422-.744 3.605-.792 7.168.644 10.643.944 2.285 2.442 4.136 4.406 5.612.32.241.729.416 1.124.495 4.345.873 8.646.55 12.909-.54 5.001-1.277 9.438-3.641 13.346-7.015.607-.525 1.083-1.105 1.105-1.921.031-1.252.126-2.52-.024-3.755-.269-2.204-1.083-4.267-1.972-6.293-.29-.659-.594-1.313-.893-1.968 2.513 2.947 4.463 6.186 5.234 10.124.188-.231.308-.366.414-.51a26.726 26.726 0 0 0 4.182-8.318c1.263-4.225 1.445-8.436-.207-12.614-1.644-4.148-4.451-7.375-7.974-10.027-.884-.666-1.821-1.261-2.773-1.917-.438 1.147-1.188 1.941-1.991 2.693-1.536 1.439-3.376 2.354-5.342 3.026-1.29.44-2.611.797-3.77 1.147zm1.699-11.68l-3.419 8.447c-.026-.003.042.015.109.014 2.284-.001 4.558-.137 6.781-.71 1.857-.478 3.617-1.147 4.926-2.65.475-.545.521-1.01.02-1.533a8.564 8.564 0 0 0-1.509-1.25c-1.533-.99-3.253-1.54-5.016-1.955-.651-.154-1.316-.255-1.892-.363zm-11.886-.233c.438 2.441 1.386 4.569 2.946 6.559.479-2.048.882-3.95.684-5.984-1.259.056-2.507.235-3.63-.575zm6.935.856l-.242 3.966c.051.016.104.03.157.043l3.113-4.594-.126-.187c-.943.252-1.889.503-2.902.772z" fill="#42210B"/>
    <path d="M39.356 19.959c1.158-.35 2.479-.707 3.771-1.148 1.966-.672 3.806-1.587 5.342-3.026.804-.751 1.554-1.545 1.991-2.693.952.656 1.89 1.252 2.773 1.917 3.522 2.653 6.33 5.879 7.974 10.027 1.652 4.178 1.47 8.389.207 12.614a26.682 26.682 0 0 1-4.182 8.318c-.106.144-.227.278-.414.51-.771-3.938-2.722-7.177-5.234-10.124.299.655.603 1.309.893 1.968.889 2.026 1.703 4.089 1.972 6.293.15 1.235.056 2.503.024 3.755-.022.816-.498 1.396-1.105 1.921-3.908 3.374-8.345 5.737-13.346 7.015-4.263 1.09-8.564 1.412-12.909.54a2.85 2.85 0 0 1-1.124-.495c-1.964-1.476-3.462-3.327-4.406-5.612-1.436-3.475-1.388-7.038-.644-10.643.027-.138.048-.28.005-.422-2.22 4.965-2.534 10.007-.475 15.169-.116-.026-.168-.026-.208-.047-7.354-3.869-12.739-9.523-15.541-17.424-1.342-3.788-1.661-7.692-.481-11.622.663-2.208 1.764-4.189 3.104-6.057.699-.976 1.316-2.012 1.944-3.035 1.276-2.072 2.638-4.077 4.393-5.788 2.522-2.46 5.671-3.575 9.037-4.212a11.952 11.952 0 0 1 4.52.024c.417.08.502.23.503.683.002 1.161.056 2.336.245 3.481.209 1.267.589 2.507.89 3.743-5.03-1.18-9.915-.021-14.751 1.561l.019.162c.341-.042.682-.084 1.023-.123.362-.042.724-.086 1.086-.12 2.265-.208 4.52-.143 6.778.093 2.558.266 4.84 1.166 6.858 2.755.268.209.348.365.237.718-.902 2.915-2.449 5.481-4.228 7.928-.118.16-.235.319-.319.509 3.082-2.083 5.777-4.56 7.8-7.795 1.077 1.299 2.543 1.44 3.992 1.635 3.102.418 5.877 1.663 8.479 3.35.606.392 1.202.809 1.838 1.241-.473-.779-2.771-3.594-3.774-4.313-1.537-1.101-3.085-2.187-4.557-3.231zm-30.279.937c.024-.016-.037.02-.09.065-2.516 2.243-3.746 5.146-4.058 8.416-.383 3.982.51 7.76 2.293 11.322 1.176 2.349 2.746 4.424 4.568 6.309.329.341.679.662 1.02.992.041-.131.007-.188-.027-.246-.912-1.471-1.911-2.895-2.712-4.423-1.685-3.211-2.479-6.65-2.206-10.285.154-2.058.641-4.042 1.85-5.764.556-.793 1.221-1.51 1.787-2.202a6852.73 6852.73 0 0 0-2.425-4.184z" fill="#BC2A35"/>
    <path d="M9.077 20.896l2.425 4.185c-.566.691-1.231 1.409-1.787 2.202-1.209 1.722-1.695 3.706-1.85 5.764-.272 3.635.521 7.074 2.206 10.285.801 1.528 1.8 2.952 2.712 4.423.034.058.068.115.027.246-.341-.33-.69-.651-1.02-.992-1.822-1.885-3.393-3.96-4.568-6.309-1.783-3.562-2.676-7.34-2.293-11.322.312-3.27 1.542-6.172 4.058-8.416.053-.046.115-.082.09-.066z" fill="#42210B"/>
    <path d="M97.411 6.97c.584-.041 1.254-.108 1.922-.125 1.812-.04 3.613.062 5.345.636a8.441 8.441 0 0 1 1.774.831c.617.381.688.843.366 1.489-.891 1.784-2.426 2.873-4.104 3.801-2.01 1.113-4.176 1.814-6.387 2.388-.065.019-.135.017-.109.014.392-2.965.782-5.931 1.193-9.034zM85.845 9.727c1.292.503 2.454.016 3.66-.354.702 1.92.787 3.861.838 5.965-2.01-1.536-3.462-3.358-4.498-5.611zM92.774 8.816L95.39 7.34l.169.149-1.862 5.229c-.054 0-.109 0-.163-.003-.255-1.301-.508-2.604-.76-3.899z" fill="#BC2A35"/>
    <path d="M83.891 7.173c.037-1.005.071-1.958.113-3.043.26 1 .49 1.85.695 2.705.068.29.177.414.508.42.582.008 1.166.166 1.74.128.866-.057 1.757-.098 2.357-.921.56-.763 1.637-.929 2.461-.401.289.188.485.194.775.002a8.05 8.05 0 0 1 3.349-1.276c.396-.053.585-.201.668-.619.188-.965.446-1.917.683-2.874.045-.187.125-.366.268-.535-.002 1.214-.007 2.427-.009 3.679.78-.029 1.537-.071 2.299-.083 2.094-.029 4.15.224 6.135.927 1.042.37 2.001.878 2.766 1.715.145.159.392.25.611.316 3.442 1.09 6.647 2.648 9.494 4.888 5.751 4.525 8.445 10.471 8.179 17.761-.336 9.242-4.264 16.735-11.153 22.764-3.905 3.416-8.376 5.837-13.347 7.284-5.869 1.705-11.712 1.314-17.457-.595-7.387-2.454-13.424-6.762-17.718-13.338-1.76-2.698-3.036-5.609-3.502-8.838a19.817 19.817 0 0 1 .759-8.973 230.512 230.512 0 0 1 2.798-8.182c.995-2.755 2.329-5.352 4.524-7.348 2.891-2.629 6.172-4.593 10.073-5.342.322-.061.65-.096.976-.134.322-.036.646-.061.955-.087zm14.804 11.531c1.688.641 3.458 1.304 5.221 1.985 1.152.444 4.083 2.593 4.736 3.229-.725-.26-1.405-.514-2.092-.741-2.94-.98-5.94-1.489-9.048-1.115-1.452.174-2.907.406-4.274-.582-1.146 3.639-3.135 6.713-5.596 9.502.034-.205.108-.389.181-.573 1.108-2.814 1.962-5.687 2.105-8.735.019-.369-.099-.5-.41-.635-2.353-1.032-4.787-1.332-7.331-.947-2.244.338-4.446.84-6.584 1.61a40.44 40.44 0 0 0-1.021.388l-.962.376c-.02-.051-.037-.102-.059-.153 4.286-2.744 8.724-5.09 13.889-5.21-.602-1.12-1.28-2.226-1.8-3.399-.472-1.062-.816-2.186-1.11-3.309-.114-.437-.234-.562-.657-.535a11.973 11.973 0 0 0-4.382 1.111c-3.099 1.461-5.867 3.329-7.693 6.345-1.268 2.096-2.082 4.378-2.799 6.704-.351 1.149-.688 2.305-1.121 3.426-.829 2.144-1.396 4.338-1.484 6.642-.156 4.1 1.132 7.8 3.381 11.129C74.479 52.163 81.11 56.285 89.2 58.186c.043.011.093-.002.211-.006-3.288-4.481-4.247-9.441-3.344-14.805a.85.85 0 0 1 .1.411c.186 3.677 1.032 7.138 3.294 10.141 1.487 1.975 3.402 3.392 5.674 4.326.369.153.81.22 1.211.198 4.424-.245 8.51-1.637 12.361-3.761 4.521-2.49 8.224-5.893 11.16-10.138.457-.661.771-1.341.587-2.136-.282-1.22-.51-2.471-.964-3.629-.813-2.067-2.12-3.86-3.487-5.598-.447-.565-.905-1.122-1.358-1.682 3.173 2.224 5.872 4.869 7.607 8.488.124-.271.205-.432.271-.597a26.638 26.638 0 0 0 1.962-9.101c.163-4.407-.716-8.529-3.364-12.159-2.631-3.602-6.159-6.021-10.233-7.707-1.022-.422-2.08-.764-3.166-1.161-.134 1.221-.661 2.178-1.252 3.106-1.127 1.778-2.678 3.125-4.411 4.27-1.14.751-2.33 1.428-3.364 2.058zM97.411 6.97c-.411 3.103-.801 6.069-1.192 9.035-.025.003.044.004.109-.014 2.211-.574 4.377-1.275 6.387-2.388 1.678-.929 3.213-2.018 4.104-3.801.322-.646.251-1.108-.366-1.489a8.465 8.465 0 0 0-1.774-.831c-1.731-.573-3.533-.676-5.345-.636-.669.016-1.339.084-1.923.124zM85.845 9.727c1.036 2.253 2.488 4.075 4.498 5.61-.051-2.104-.136-4.045-.838-5.965-1.206.371-2.368.857-3.66.355zm6.929-.911c.252 1.294.505 2.598.76 3.899.054.003.109.003.163.003l1.862-5.229-.169-.149-2.616 1.476z" fill="#42210B"/>
    <path d="M98.695 18.704c1.034-.63 2.224-1.307 3.363-2.058 1.733-1.144 3.284-2.491 4.411-4.27.591-.929 1.118-1.885 1.252-3.106 1.086.397 2.144.739 3.166 1.161 4.074 1.685 7.603 4.104 10.233 7.707 2.648 3.63 3.527 7.752 3.364 12.159a26.638 26.638 0 0 1-1.962 9.101c-.066.166-.147.326-.271.597-1.735-3.619-4.435-6.264-7.607-8.488.453.56.911 1.117 1.358 1.682 1.367 1.738 2.674 3.531 3.487 5.598.454 1.158.682 2.409.964 3.629.185.795-.13 1.475-.587 2.136-2.937 4.246-6.64 7.648-11.16 10.138-3.852 2.125-7.938 3.516-12.361 3.761a2.855 2.855 0 0 1-1.211-.198c-2.271-.935-4.187-2.351-5.674-4.326-2.262-3.003-3.108-6.464-3.294-10.141-.007-.142-.022-.283-.1-.411-.903 5.363.056 10.323 3.344 14.805-.118.004-.168.017-.211.006-8.09-1.901-14.721-6.023-19.415-12.969-2.249-3.329-3.537-7.029-3.381-11.129.088-2.304.655-4.498 1.484-6.642.434-1.121.771-2.277 1.121-3.426.717-2.326 1.531-4.608 2.799-6.704 1.826-3.016 4.595-4.883 7.693-6.345a11.973 11.973 0 0 1 4.382-1.111c.423-.027.543.098.657.535.294 1.124.639 2.248 1.11 3.309.52 1.174 1.198 2.28 1.8 3.399-5.165.12-9.603 2.466-13.889 5.21l.059.153c.319-.125.64-.252.962-.376.338-.131.679-.265 1.021-.388 2.138-.77 4.34-1.272 6.584-1.61 2.544-.384 4.979-.085 7.331.947.312.136.429.266.41.635-.144 3.049-.997 5.921-2.105 8.735-.072.184-.146.368-.181.573 2.461-2.79 4.449-5.864 5.596-9.502 1.367.988 2.822.756 4.274.582 3.107-.374 6.107.135 9.048 1.115.687.227 1.367.481 2.092.741-.653-.636-3.584-2.785-4.736-3.229-1.762-.682-3.532-1.344-5.22-1.985zM69.62 27.205c.019-.022-.032.029-.071.086-1.874 2.803-2.336 5.92-1.818 9.165.631 3.95 2.44 7.384 5.062 10.384 1.727 1.979 3.768 3.594 6.004 4.962.404.247.823.47 1.237.704.005-.137-.042-.184-.09-.231-1.25-1.194-2.576-2.322-3.734-3.601-2.437-2.685-4.068-5.815-4.716-9.403-.367-2.031-.392-4.074.346-6.043.338-.907.804-1.768 1.178-2.581-1.1-1.112-2.233-2.26-3.398-3.442z" fill="#BC2A35"/>
    <path d="M69.62 27.205l3.396 3.442c-.374.813-.84 1.673-1.178 2.581-.737 1.969-.713 4.012-.346 6.043.647 3.587 2.279 6.718 4.716 9.403 1.158 1.279 2.484 2.407 3.734 3.601.048.047.095.094.09.231-.414-.234-.833-.457-1.237-.704-2.236-1.368-4.277-2.982-6.004-4.962-2.621-3-4.431-6.435-5.062-10.384-.518-3.244-.056-6.362 1.818-9.165.041-.057.092-.108.073-.086z" fill="#42210B"/>
  </symbol>

  <symbol id="beef" width="112" height="59" viewBox="0 0 112 59">
    <title>Beef</title>
    <g stroke-width="1.018" stroke="#42210B" fill="none" fill-rule="evenodd">
      <path d="M57.145 1.905S22.469-6.103 2.594 18.155c0 0-9.483 25.999 12.852 36.408 0 0 12.615 6.286 43.645 1.923 0 0 32.281-3.133 42.299-9.232 0 0 21.497-23.664 1.158-24.628 0 0-18.107 1.114-24.987-8.613L68.77 6.782 57.145 1.905z" fill="#7C2618" fill-rule="nonzero"/>
      <path d="M.859 26.065s2.919 17.74 44.524 19.036c0 0 49.715 2.26 65.091-11.923"/>
      <path d="M69.762 12.59S29.178-7.689 6.637 23.296c0 0-6.182 18.605 59.699 15.015 0 0 25.812.522 34.806-6.368 0 0 3.501-5.499-10.508-6.658 0 0-10.749 1.387-14.595-6.363 0 .001-.925-4.118-6.277-6.332z" fill="#A5142D" fill-rule="nonzero"/>
      <ellipse fill="#FFF" fill-rule="nonzero" transform="rotate(7.591 35.825 17.835)" cx="35.825" cy="17.835" rx="8.949" ry="3.722"/>
    </g>
  </symbol>
</svg>