<svg xmlns="http://www.w3.org/2000/svg">
  <symbol id="radioactive" width="50" height="50" viewBox="0 0 50 50">
    <title>Radioactive icon</title>
    <g fill-rule="nonzero" fill="currentColor">
      <g transform="translate(8 8)">
        <circle cx="17.234" cy="15.75" r="3.311"/>
        <path d="M14.694 11.281l.04-.069L8.553.691S-.061 4.965.005 15.749h12.067c-.001-1.922 1.063-3.579 2.622-4.468zM17.234 20.912a5.108 5.108 0 0 1-2.61-.732h-.075L8.515 30.785s8.001 5.333 17.314-.104l-6.031-10.477a5.094 5.094 0 0 1-2.564.708zM25.818.812l-6.023 10.481c1.547.891 2.601 2.543 2.601 4.457 0 .018-.005.035-.005.053l.023.039 12.201-.117c-.001 0 .585-9.598-8.797-14.913z"/>
      </g>
      <path d="M25.313 49.282C11.853 49.282.94 38.37.94 24.909.94 11.449 11.852.536 25.313.536c13.46 0 24.373 10.912 24.373 24.373 0 13.46-10.912 24.373-24.373 24.373zm0-2.104c12.299 0 22.269-9.97 22.269-22.269 0-12.299-9.97-22.269-22.269-22.269-12.299 0-22.269 9.97-22.269 22.269 0 12.299 9.97 22.269 22.269 22.269z"/>
    </g>
  </symbol>

  <svg id="flammable" width="50" height="50" viewBox="0 0 50 50">
    <title>Flammable</title>
    <path fill="transparent" d="M0 0h50v50H0z"/>
    <g fill-rule="nonzero">
      <path d="M26.87 32.176c.153-.418.35-.826.454-1.257.275-1.14.1-2.258-.263-3.351-.434-1.313-1.104-2.507-1.918-3.645.024.276.05.551.072.827.148 1.753.211 3.502-.12 5.245-.19.998-.695 2.18-1.274 2.884-1.04-1.216-1.704-2.61-2.089-4.227-.495 1.256-.658 2.483-.61 3.745.048 1.259.32 2.477.721 3.703a1.684 1.684 0 0 1-.915-.614c-.432-.56-.668-1.214-.878-1.876-.486-1.529-.779-3.102-1.066-4.677-.007-.039-.018-.077-.047-.194-.072.157-.118.248-.156.343-.36.898-.41 1.846-.46 2.795a5.422 5.422 0 0 1-.106.881c-.084.38-.297.547-.68.487-.396-.062-.78-.2-1.178-.306.167 1.053.425 2.109.803 3.135.485 1.317 1.141 2.532 2.147 3.533a6.195 6.195 0 0 0 2.271 1.455c.052.019.103.041.215.086-.738.207-1.427.298-2.128.265-2.316-.11-3.917-1.355-5.077-3.256-.87-1.425-1.303-2.999-1.519-4.648-.154-1.18-.033-2.334.18-3.488.198-1.088.178-2.158-.199-3.208-.008-.021 0-.047 0-.1.77.402 1.336.99 1.822 1.748.543-2.873.87-5.706.624-8.676.266.168.484.274.664.426.556.468.903 1.094 1.232 1.727.218.418.42.844.646 1.304.458-1.379.82-2.733 1.047-4.121.198-1.208.341-2.423.2-3.645-.084-.718-.255-1.426-.389-2.15.277.022.588.144.811.38.36.379.706.779.993 1.212.322.485.572 1.017.882 1.582.11-.227.223-.42.301-.626.272-.716.325-1.471.346-2.225.024-.873-.01-1.748.018-2.62.026-.764.153-1.519.45-2.229.118-.282.305-.534.461-.8l.07.03c.086.442.163.887.262 1.326.268 1.2.802 2.278 1.514 3.275.774 1.083 1.56 2.161 2.047 3.413.258.661.461 1.344.688 2.017.031.093.056.189.1.343.304-.639.447-1.26.481-1.897.035-.638.008-1.28.008-1.985.208.172.392.302.551.459.683.673 1.124 1.502 1.502 2.368.773 1.772 1.227 3.637 1.58 5.53.082.441.153.884.238 1.383.122-.107.261-.176.32-.288.22-.416.46-.831.602-1.275.191-.603.298-1.232.451-1.892.162.261.32.497.46.743.99 1.74 1.365 3.617 1.201 5.602a14.95 14.95 0 0 1-.28 1.908c-.11.51-.328.995-.468 1.499a4.472 4.472 0 0 0-.12 1.78c.401-.248.597-.625.773-1.012.174-.383.331-.774.507-1.189 1.035 3.346.066 6.816-2.613 9.098-2.612 2.226-6.22 2.743-8.574 1.615.423-.25.833-.479 1.228-.731.814-.518 1.66-.997 2.42-1.585 1.368-1.059 2.116-2.53 2.525-4.184.138-.557.232-1.125.35-1.7l-1.505.836-.048-.051c.108-.42.23-.837.32-1.261.19-.883.315-1.773.074-2.667-.067-.248-.192-.48-.313-.776-.17.377-.3.688-.448.991-.35.721-.758 1.408-1.362 1.945-.239.212-.547.346-.823.516l-.007-.008z" fill="currentColor"/>
      <path d="M31.287 42v.647H16V42h15.287z" fill="currentColor"/>
    </g>
  </svg>

  <symbol id="biohazard" width="49" height="46" viewBox="0 0 49 46">
    <title>Biohazard icon</title>
    <g fill-rule="nonzero" fill="currentColor">
      <path d="M13.6 19.745c-2.33-4.578-2.322-9.087.484-13.44 1.957-3.035 4.815-4.819 8.355-5.51-2.317.605-4.224 1.836-5.658 3.764-1.434 1.927-2.077 4.108-1.935 6.503.293 4.945 4.24 8.887 9.054 9.271v.587c0 .417-.005.835.003 1.252.002.13-.04.177-.168.212-1.788.485-2.967 2.08-2.897 3.93.011.295.087.588.142.879.018.094.026.154-.074.211-.541.306-1.078.619-1.628.938-1.708-2.357-3.993-3.773-6.876-4.166-2.197-.299-4.266.139-6.194 1.232a9.925 9.925 0 0 0-4.55 11.471C-1.3 29.365 4.052 19.899 13.6 19.745zM35.835 19.716c4.956.239 8.786 2.38 11.201 6.752 1.835 3.322 2.008 6.834.778 10.417.672-2.378.54-4.709-.477-6.966-1.018-2.258-2.678-3.897-4.922-4.94-4.168-1.936-9.472-.663-12.238 3.361-.548-.317-1.099-.631-1.642-.958-.043-.026-.059-.146-.042-.211.242-.942.168-1.854-.263-2.726-.522-1.055-1.364-1.735-2.493-2.062a19.453 19.453 0 0 0-.171-.048v-2.004c2.887-.309 5.252-1.573 7.028-3.871 1.311-1.696 1.978-3.635 2.033-5.78.116-4.524-2.914-8.706-7.611-9.879 1.705.292 3.278.922 4.724 1.871a12.842 12.842 0 0 1 3.619 3.581c2.48 3.663 3.061 8.914.476 13.463zM24.737 38.999c-2.702 4.176-6.484 6.402-11.499 6.308-4.17-.078-7.51-2.294-9.206-4.402 1.783 1.769 3.921 2.786 6.425 2.961 2.513.176 4.776-.536 6.775-2.07 3.335-2.56 4.973-7.476 2.876-12.016.045-.03.091-.065.141-.094l1.461-.844c.075-.044.133-.091.221.001a3.87 3.87 0 0 0 5.636-.033c.013-.014.032-.022.059-.039l1.732 1.001c-1.114 2.477-1.257 4.988-.363 7.535.72 2.052 2.005 3.68 3.803 4.905 3.72 2.534 9.123 2.284 12.628-1.303-1.667 2.117-5.612 4.87-10.82 4.353-4.325-.429-7.583-2.611-9.869-6.263z"/>
      <path d="M31.497 15.5c-.328.357-.61.72-.949 1.019-.445.393-.932.739-1.409 1.094-.056.042-.179.047-.244.015a9.4 9.4 0 0 0-4.119-.965 9.423 9.423 0 0 0-4.201.957c-.068.033-.185.039-.246.002a8.27 8.27 0 0 1-2.265-2.03c-.023-.03-.042-.064-.074-.113 2.149-1.343 4.478-1.994 6.997-1.945 2.335.046 4.49.7 6.51 1.966zM18.856 37.318c-2.254-1.215-4.004-2.924-5.223-5.165-1.103-2.027-1.595-4.198-1.506-6.515a8.286 8.286 0 0 1 3.039.976c.05.027.094.11.098.169.179 2.336 1.081 4.349 2.722 6.016.434.441.952.797 1.426 1.199.065.056.138.154.135.23a8.472 8.472 0 0 1-.622 2.954c-.018.041-.041.08-.069.136zM30.585 37.302a7.78 7.78 0 0 1-.567-1.955c-.053-.346-.069-.697-.112-1.045-.018-.149.028-.237.155-.325 2.024-1.409 3.34-3.308 3.902-5.712.112-.481.15-.979.228-1.468.01-.063.04-.148.087-.175a8.267 8.267 0 0 1 3.052-.983 12.477 12.477 0 0 1-1.593 6.677c-1.301 2.334-3.337 4.099-5.152 4.986z"/>
    </g>
  </symbol>
</svg>