<svg xmlns="http://www.w3.org/2000/svg">
  <symbol id="radioactive" viewBox="0 0 296.252 296.252">
    <title>Radioactive</title>
    <circle fill="none" stroke="currentColor" stroke-width="12.788" stroke-miterlimit="10" cx="148.126" cy="148.126" r="141.732"/>
    <circle cx="147.644" cy="141.083" r="20.125"/>
    <path fill="currentColor" d="M132.208 113.926l.242-.416-37.565-63.94s-52.35 25.975-51.951 91.513h73.337c0-11.685 6.463-21.758 15.937-27.157zM147.645 172.456c-5.815 0-11.193-1.689-15.862-4.446l-.455-.002-36.674 64.454s48.629 32.412 105.229-.629l-36.652-63.673c-4.609 2.658-9.884 4.296-15.586 4.296zM199.814 50.294l-36.605 63.701c9.404 5.418 15.808 15.455 15.808 27.088 0 .111-.032.213-.033.324l.138.239 74.154-.714c.001 0 3.561-58.331-53.462-90.638z"/>
  </symbol>

  <symbol id="flammable" viewBox="0 0 296.252 296.252">
    <title>Flammable</title>
    <circle fill="none" stroke="currentColor" stroke-width="12.788" stroke-miterlimit="10" cx="148.126" cy="148.126" r="141.732"/>
    <path fill="currentColor" d="M161.811 180.192c.901-2.442 2.047-4.825 2.654-7.339 1.608-6.654.575-13.183-1.534-19.57-2.533-7.667-6.448-14.637-11.202-21.285.141 1.61.286 3.219.422 4.829.865 10.235 1.231 20.452-.706 30.63-1.109 5.827-4.053 12.728-7.436 16.84-6.072-7.099-9.948-15.241-12.196-24.684-2.893 7.335-3.843 14.501-3.562 21.868.28 7.354 1.869 14.465 4.213 21.623-2.333-.663-4.016-1.863-5.341-3.583-2.52-3.27-3.898-7.087-5.128-10.956-2.838-8.927-4.549-18.114-6.227-27.308-.041-.227-.107-.45-.272-1.13-.419.918-.688 1.451-.909 2.003-2.101 5.241-2.394 10.777-2.689 16.32-.092 1.722-.246 3.465-.619 5.143-.493 2.22-1.733 3.193-3.973 2.845-2.314-.36-4.559-1.165-6.877-1.788.974 6.147 2.482 12.317 4.688 18.304 2.832 7.688 6.665 14.785 12.538 20.631 3.806 3.789 8.208 6.655 13.263 8.499.302.11.599.238 1.253.499-4.311 1.209-8.33 1.742-12.427 1.548-13.526-.64-22.872-7.91-29.649-19.015-5.08-8.324-7.608-17.512-8.869-27.142-.902-6.888-.193-13.629 1.042-20.365 1.165-6.352 1.047-12.599-1.158-18.732-.044-.122-.006-.274-.006-.585 4.502 2.345 7.804 5.783 10.647 10.207 3.168-16.779 5.075-33.319 3.646-50.665 1.552.981 2.827 1.601 3.879 2.487 3.249 2.735 5.272 6.388 7.197 10.083 1.271 2.44 2.447 4.931 3.771 7.614 2.672-8.055 4.789-15.96 6.116-24.064 1.154-7.051 1.99-14.149 1.161-21.283-.487-4.193-1.486-8.326-2.267-12.555 1.617.127 3.435.843 4.736 2.217 2.095 2.212 4.12 4.546 5.8 7.078 1.879 2.831 3.34 5.939 5.152 9.235.645-1.325 1.302-2.452 1.759-3.656 1.588-4.18 1.899-8.59 2.021-12.99.142-5.098-.066-10.206.105-15.302.15-4.461.895-8.872 2.63-13.019.688-1.644 1.782-3.118 2.691-4.67l.401.178c.508 2.583.96 5.178 1.534 7.746 1.566 7.007 4.686 13.304 8.843 19.121 4.518 6.322 9.107 12.621 11.952 19.927 1.504 3.861 2.691 7.846 4.015 11.777.183.545.325 1.103.587 2.004 1.774-3.729 2.608-7.359 2.81-11.08.203-3.728.045-7.476.045-11.593 1.213 1.002 2.289 1.765 3.216 2.679 3.986 3.927 6.563 8.772 8.768 13.828 4.514 10.35 7.167 21.239 9.224 32.294.479 2.576.891 5.164 1.39 8.077.713-.622 1.525-1.03 1.869-1.684 1.278-2.431 2.688-4.852 3.513-7.448 1.118-3.519 1.741-7.195 2.634-11.049.946 1.521 1.869 2.902 2.688 4.341 5.782 10.162 7.972 21.123 7.014 32.711a86.962 86.962 0 0 1-1.64 11.14c-.642 2.976-1.908 5.81-2.726 8.755-.921 3.317-1.154 6.721-.7 10.391 2.341-1.446 3.486-3.648 4.513-5.909 1.017-2.238 1.934-4.522 2.961-6.941 6.045 19.54.383 39.801-15.257 53.129-15.253 12.999-36.323 16.017-50.067 9.431 2.467-1.461 4.863-2.796 7.172-4.266 4.75-3.024 9.687-5.821 14.127-9.255 7.997-6.183 12.361-14.776 14.748-24.433.804-3.253 1.355-6.568 2.036-9.929l-8.784 4.883-.279-.295c.629-2.454 1.34-4.89 1.87-7.365 1.105-5.157 1.842-10.355.431-15.573-.392-1.448-1.12-2.805-1.828-4.53-.991 2.2-1.758 4.016-2.618 5.787-2.043 4.209-4.426 8.223-7.951 11.36-1.393 1.24-3.193 2.023-4.808 3.014l-.04-.04z"/>
    <path fill="currentColor" d="M188.14 237.386v3.777H98.875v-3.777h89.265z"/>
  </symbol>

  <symbol id="biohazard" viewBox="0 0 296.252 296.252">
    <title>Biohazard</title>
    <circle fill="none" stroke="currentColor" stroke-width="12.788" stroke-miterlimit="10" cx="148.126" cy="148.126" r="141.732"/>
    <path fill="currentColor" d="M100.089 120.274c-10.063-19.771-10.028-39.248 2.092-58.046 8.451-13.107 20.797-20.814 36.083-23.798-10.007 2.612-18.245 7.931-24.436 16.255-6.191 8.324-8.971 17.741-8.358 28.085 1.265 21.358 18.314 38.384 39.106 40.042v2.534c0 1.803-.021 3.606.012 5.408.01.561-.173.765-.724.914-7.72 2.096-12.813 8.984-12.512 16.974.048 1.272.374 2.538.615 3.798.077.404.113.665-.321.91-2.337 1.32-4.655 2.675-7.033 4.049-7.375-10.181-17.245-16.295-29.699-17.992-9.49-1.293-18.424.599-26.753 5.321-15.885 9.007-25.732 28.817-19.652 49.544-12.773-32.45 10.343-73.335 51.58-73.998zM196.122 120.146c21.406 1.031 37.947 10.278 48.375 29.162 7.923 14.347 8.672 29.517 3.36 44.991 2.901-10.271 2.333-20.337-2.061-30.086-4.395-9.752-11.564-16.833-21.259-21.336-18-8.361-40.909-2.865-52.857 14.515-2.366-1.369-4.746-2.727-7.092-4.139-.184-.111-.255-.631-.183-.911 1.047-4.067.727-8.009-1.134-11.773-2.253-4.558-5.891-7.492-10.767-8.904-.243-.07-.487-.138-.738-.209v-8.657c12.471-1.333 22.682-6.794 30.356-16.719 5.664-7.326 8.542-15.699 8.779-24.965.5-19.54-12.587-37.601-32.871-42.669 7.364 1.262 14.159 3.984 20.404 8.079 6.249 4.098 11.439 9.276 15.629 15.467 10.714 15.829 13.225 38.509 2.059 58.154zM148.188 203.43c-11.668 18.037-28.005 27.648-49.666 27.245-18.011-.335-32.434-9.907-39.76-19.011 7.7 7.641 16.936 12.034 27.75 12.79 10.852.759 20.625-2.313 29.259-8.941 14.406-11.058 21.478-32.29 12.421-51.898.196-.131.394-.282.609-.406 2.102-1.217 4.208-2.428 6.31-3.647.326-.189.576-.392.953.003 6.619 6.936 17.677 6.94 24.34-.143.056-.06.14-.094.256-.169l7.479 4.324c-4.813 10.697-5.428 21.544-1.569 32.542 3.109 8.86 8.661 15.895 16.427 21.184 16.068 10.943 39.401 9.863 54.538-5.629-7.199 9.142-24.237 21.034-46.733 18.802-18.668-1.852-32.74-11.274-42.614-27.046z"/>
    <path fill="currentColor" d="M177.388 101.937c-1.416 1.541-2.636 3.109-4.1 4.401-1.922 1.696-4.024 3.19-6.084 4.724-.242.18-.772.201-1.054.063-5.617-2.742-11.559-4.134-17.791-4.167-6.353-.033-12.41 1.359-18.142 4.134-.294.142-.799.167-1.061.008a35.667 35.667 0 0 1-9.781-8.766c-.101-.131-.182-.278-.318-.49 9.281-5.799 19.338-8.612 30.219-8.399 10.079.199 19.386 3.023 28.112 8.492zM122.79 196.169c-9.736-5.246-17.293-12.628-22.559-22.309-4.762-8.755-6.891-18.131-6.505-28.138 4.708.577 9.056 1.971 13.127 4.214.215.119.404.473.424.732.773 10.087 4.67 18.783 11.755 25.982 1.872 1.903 4.112 3.442 6.157 5.179.282.24.596.665.585.995-.149 4.405-1.009 8.67-2.688 12.756-.073.179-.173.346-.296.589zM173.447 196.1a33.7 33.7 0 0 1-2.448-8.444c-.228-1.494-.298-3.012-.482-4.514-.079-.645.122-1.024.669-1.404 8.742-6.084 14.425-14.285 16.852-24.671.485-2.077.647-4.228.984-6.341.043-.271.171-.641.377-.755 4.086-2.269 8.456-3.67 13.181-4.247.394 10.302-1.896 19.891-6.88 28.837-5.622 10.087-14.415 17.708-22.253 21.539z"/>
  </symbol>
</svg>